<svg width="61" height="122" viewBox="0 0 61 122" fill="none" xmlns="http://www.w3.org/2000/svg">
<path opacity="0.2" d="M60.0919 2.49435C60.4492 1.71901 61.5511 1.71901 61.9084 2.49435L73.0616 26.6994C73.717 28.1216 75.3561 28.8006 76.8252 28.2583L101.827 19.0293C102.628 18.7337 103.407 19.5128 103.112 20.3137L93.8827 45.3158C93.3404 46.7849 94.0193 48.4239 95.4416 49.0793L119.647 60.2326C120.422 60.5898 120.422 61.6917 119.647 62.049L95.4416 73.2023C94.0193 73.8576 93.3404 75.4967 93.8827 76.9658L103.112 101.968C103.407 102.769 102.628 103.548 101.827 103.252L76.8252 94.0233C75.3561 93.481 73.717 94.1599 73.0616 95.5822L61.9084 119.787C61.5511 120.563 60.4492 120.563 60.0919 119.787L48.9387 95.5822C48.2833 94.1599 46.6442 93.481 45.1751 94.0233L20.1731 103.252C19.3722 103.548 18.593 102.769 18.8887 101.968L28.1176 76.9658C28.6599 75.4967 27.981 73.8576 26.5587 73.2023L2.35373 62.049C1.57838 61.6917 1.57838 60.5898 2.35373 60.2326L26.5587 49.0793C27.981 48.4239 28.6599 46.7849 28.1176 45.3158L18.8887 20.3137C18.593 19.5128 19.3722 18.7337 20.1731 19.0293L45.1751 28.2583C46.6442 28.8006 48.2833 28.1216 48.9387 26.6994L60.0919 2.49435Z" stroke="white" stroke-width="2"/>
</svg>
