<svg width="119" height="93" viewBox="0 0 119 93" fill="none" xmlns="http://www.w3.org/2000/svg">
<g opacity="0.2">
<mask id="path-1-inside-1_241_4680" fill="white">
<path d="M118.73 0C118.73 51.2881 77.1533 92.8652 25.8652 92.8652C-25.4228 92.8652 -67 51.2881 -67 0C-67 -51.2881 -25.4228 -92.8652 25.8652 -92.8652C77.1533 -92.8652 118.73 -51.2881 118.73 0ZM-27.3045 0C-27.3045 29.3648 -3.49961 53.1698 25.8652 53.1698C55.2301 53.1698 79.035 29.3648 79.035 0C79.035 -29.3648 55.2301 -53.1698 25.8652 -53.1698C-3.49961 -53.1698 -27.3045 -29.3648 -27.3045 0Z"/>
</mask>
<path d="M118.73 0C118.73 51.2881 77.1533 92.8652 25.8652 92.8652C-25.4228 92.8652 -67 51.2881 -67 0C-67 -51.2881 -25.4228 -92.8652 25.8652 -92.8652C77.1533 -92.8652 118.73 -51.2881 118.73 0ZM-27.3045 0C-27.3045 29.3648 -3.49961 53.1698 25.8652 53.1698C55.2301 53.1698 79.035 29.3648 79.035 0C79.035 -29.3648 55.2301 -53.1698 25.8652 -53.1698C-3.49961 -53.1698 -27.3045 -29.3648 -27.3045 0Z" stroke="white" stroke-width="4" mask="url(#path-1-inside-1_241_4680)"/>
</g>
</svg>
