<svg width="53" height="142" viewBox="0 0 53 142" fill="none" xmlns="http://www.w3.org/2000/svg">
<g opacity="0.2">
<mask id="path-1-inside-1_241_4688" fill="white">
<path d="M52.9326 71.0674C52.9326 110.242 21.175 142 -18 142C-57.175 142 -88.9326 110.242 -88.9326 71.0674C-88.9326 31.8924 -57.175 0.134766 -18 0.134766C21.175 0.134766 52.9326 31.8924 52.9326 71.0674ZM-58.6123 71.0674C-58.6123 93.4969 -40.4296 111.68 -18 111.68C4.42955 111.68 22.6123 93.4969 22.6123 71.0674C22.6123 48.6378 4.42955 30.4551 -18 30.4551C-40.4296 30.4551 -58.6123 48.6378 -58.6123 71.0674Z"/>
</mask>
<path d="M52.9326 71.0674C52.9326 110.242 21.175 142 -18 142C-57.175 142 -88.9326 110.242 -88.9326 71.0674C-88.9326 31.8924 -57.175 0.134766 -18 0.134766C21.175 0.134766 52.9326 31.8924 52.9326 71.0674ZM-58.6123 71.0674C-58.6123 93.4969 -40.4296 111.68 -18 111.68C4.42955 111.68 22.6123 93.4969 22.6123 71.0674C22.6123 48.6378 4.42955 30.4551 -18 30.4551C-40.4296 30.4551 -58.6123 48.6378 -58.6123 71.0674Z" stroke="white" stroke-width="4" mask="url(#path-1-inside-1_241_4688)"/>
</g>
</svg>
