<svg width="51" height="50" viewBox="0 0 51 50" fill="none" xmlns="http://www.w3.org/2000/svg">
<path opacity="0.5" d="M25.5 49.9024C19.1435 49.9024 13.3329 47.5243 8.92631 43.6256C8.02938 42.8069 7.17145 41.9492 6.39152 41.0136C2.72581 36.6471 0.541992 31.0331 0.541992 24.9512C0.541992 18.8694 2.72581 13.2553 6.39152 8.92786C7.32744 7.83624 8.34136 6.78361 9.47226 5.84794C13.8009 2.18323 19.3775 0 25.5 0C31.6225 0 37.199 2.18323 41.5277 5.84794C42.4636 6.62767 43.3215 7.48537 44.1404 8.38205C48.0011 12.7485 50.3799 18.4405 50.4189 24.7173H44.1404C44.0234 14.5029 35.7171 6.27679 25.5 6.27679C15.2048 6.27679 6.82048 14.6199 6.82048 24.9512C6.82048 35.2436 15.1658 43.6256 25.5 43.6256V49.9024Z" fill="white"/>
<path d="M38.0962 24.9512C38.0962 24.8732 38.0962 24.7953 38.0962 24.7173C37.9793 17.8557 32.3637 12.3586 25.5003 12.3586C18.5588 12.3586 12.9043 17.9727 12.9043 24.9512C12.9043 31.9298 18.5588 37.5438 25.5003 37.5438C32.4417 37.5438 38.0962 31.8908 38.0962 24.9512ZM18.6368 24.9512C18.6368 21.1695 21.7176 18.0896 25.5003 18.0896C29.205 18.0896 32.2467 21.0526 32.3637 24.7173C32.3637 24.7953 32.3637 24.8732 32.3637 24.9512C32.3637 28.7329 29.283 31.8128 25.5003 31.8128C21.7176 31.8128 18.6368 28.7329 18.6368 24.9512Z" fill="white"/>
<path d="M50.4581 49.9024H38.603V43.5867H44.1796V38.0896H50.4581V49.9024Z" fill="white"/>
</svg>
