<svg width="19" height="19" viewBox="0 0 19 19" fill="none" xmlns="http://www.w3.org/2000/svg">
<path d="M9.50114 0.833252C4.43656 0.833252 0.334474 4.93534 0.334474 9.99992C0.33337 11.9241 0.938189 13.7999 2.06313 15.361C3.18808 16.9221 4.77603 18.0894 6.60172 18.6973C7.06006 18.777 7.23239 18.502 7.23239 18.2609C7.23239 18.0437 7.22047 17.3223 7.22047 16.5541C4.91781 16.9785 4.32197 15.9931 4.13864 15.477C4.03506 15.213 3.58864 14.3999 3.19906 14.1818C2.87822 14.0103 2.41989 13.5859 3.18714 13.5749C3.90947 13.563 4.42464 14.2395 4.59697 14.5145C5.42197 15.9005 6.73922 15.5109 7.26631 15.2708C7.34697 14.6749 7.58714 14.2743 7.85114 14.0452C5.81156 13.816 3.68031 13.0249 3.68031 9.51867C3.68031 8.52134 4.03506 7.69725 4.61989 7.05559C4.52822 6.82642 4.20739 5.88684 4.71156 4.62642C4.71156 4.62642 5.47881 4.38534 7.23239 5.56509C7.97866 5.35828 8.74967 5.25435 9.52406 5.25617C10.3032 5.25617 11.0824 5.35884 11.8157 5.56509C13.5693 4.37342 14.3366 4.62642 14.3366 4.62642C14.8407 5.88684 14.5199 6.82642 14.4282 7.05559C15.0121 7.69725 15.3678 8.51034 15.3678 9.51867C15.3678 13.0368 13.2256 13.816 11.186 14.0452C11.5178 14.3312 11.8047 14.8812 11.8047 15.741C11.8047 16.9666 11.7928 17.952 11.7928 18.2618C11.7928 18.502 11.9651 18.788 12.4235 18.6963C14.2429 18.0818 15.8239 16.9123 16.9438 15.3523C18.0638 13.7923 18.6664 11.9203 18.6669 9.99992C18.6669 4.93534 14.5648 0.833252 9.50023 0.833252" fill="#2B3137"/>
</svg>
