<svg width="19" height="20" viewBox="0 0 19 20" fill="none" xmlns="http://www.w3.org/2000/svg">
<path d="M1.30883 5.88409C2.0715 4.36539 3.2415 3.08872 4.68806 2.19677C6.13461 1.30481 7.80072 0.832717 9.50016 0.833252C11.9706 0.833252 14.0459 1.74167 15.6327 3.22117L13.0046 5.85017C12.054 4.94175 10.8458 4.47884 9.50016 4.47884C7.11225 4.47884 5.091 6.09217 4.37141 8.25825C4.18808 8.80825 4.08358 9.39492 4.08358 9.99992C4.08358 10.6049 4.18808 11.1916 4.37141 11.7416C5.09191 13.9086 7.11225 15.521 9.50016 15.521C10.7331 15.521 11.7827 15.1956 12.604 14.6456C13.0801 14.3321 13.4878 13.9253 13.8023 13.4498C14.1167 12.9743 14.3315 12.44 14.4337 11.8791H9.50016V8.33342H18.1333C18.2415 8.93292 18.3002 9.55809 18.3002 10.208C18.3002 13.0002 17.301 15.3505 15.5667 16.9455C14.0505 18.3462 11.9752 19.1666 9.50016 19.1666C8.29624 19.1671 7.10403 18.9303 5.99166 18.4698C4.87929 18.0093 3.86858 17.3341 3.01728 16.4828C2.16598 15.6315 1.49078 14.6208 1.03029 13.5084C0.569789 12.3961 0.333015 11.2038 0.333497 9.99992C0.333497 8.52042 0.68733 7.12159 1.30883 5.88409Z" fill="#D44638"/>
</svg>
