<svg width="32" height="32" viewBox="0 0 32 32" fill="none" xmlns="http://www.w3.org/2000/svg">
<path d="M15.0005 6.94873V2.0257H17.0004V6.94873H15.0005ZM23.0978 10.3077L21.6927 8.88976L25.1773 5.38466L26.5824 6.8231L23.0978 10.3077ZM25.0517 17V15H29.9747V17H25.0517ZM25.1773 26.582L21.6927 23.0974L23.1107 21.6795L26.6158 25.1436L25.1773 26.582ZM8.91586 10.3205L5.40559 6.81026L6.84403 5.3975L10.3209 8.91543L8.91586 10.3205ZM8.38506 25.4103H14.1286C14.7697 25.4103 15.3188 25.1816 15.7761 24.7244C16.2334 24.2671 16.462 23.7179 16.462 23.0769C16.462 22.4359 16.241 21.8889 15.7992 21.4359C15.3573 20.9829 14.8158 20.7564 14.1748 20.7564H12.6799L12.103 19.3743C11.7748 18.6068 11.2624 17.9978 10.5658 17.5474C9.86925 17.097 9.09959 16.8718 8.25686 16.8718C7.0859 16.8718 6.0923 17.2799 5.27606 18.0961C4.45984 18.9124 4.05172 19.906 4.05172 21.0769C4.05172 22.282 4.47266 23.3055 5.31452 24.1474C6.15641 24.9893 7.17992 25.4103 8.38506 25.4103ZM8.38506 27.4102C6.63464 27.4102 5.14148 26.7922 3.90559 25.5564C2.6697 24.3205 2.05176 22.8273 2.05176 21.0769C2.05176 19.3521 2.65475 17.8867 3.86072 16.6808C5.0667 15.4748 6.53208 14.8718 8.25686 14.8718C9.53035 14.8718 10.6893 15.2244 11.7338 15.9295C12.7782 16.6346 13.5372 17.5769 14.0107 18.7564C15.2141 18.7564 16.2547 19.1637 17.1325 19.9782C18.0102 20.7927 18.4534 21.8624 18.462 23.1872C18.4346 24.3683 18.003 25.3675 17.1671 26.1846C16.3312 27.0016 15.3184 27.4102 14.1286 27.4102H8.38506ZM18.4363 22.9307C18.3508 22.5974 18.2654 22.273 18.1799 21.9577C18.0944 21.6423 18.009 21.3179 17.9235 20.9846C18.9491 20.5539 19.7739 19.8919 20.3979 18.9987C21.0218 18.1056 21.3338 17.106 21.3338 16C21.3338 14.5333 20.8115 13.2778 19.7671 12.2333C18.7226 11.1889 17.4671 10.6667 16.0004 10.6667C14.6414 10.6667 13.4577 11.115 12.4491 12.0115C11.4406 12.9081 10.8645 14.0359 10.7209 15.3949C10.3876 15.3094 10.0475 15.2308 9.70046 15.159C9.35346 15.0872 9.01329 15.0086 8.67996 14.9231C8.93978 13.1043 9.7667 11.6069 11.1607 10.4308C12.5547 9.25473 14.168 8.66669 16.0004 8.66669C18.0346 8.66669 19.7654 9.38037 21.1927 10.8077C22.62 12.2351 23.3337 13.9658 23.3337 16C23.3337 17.5658 22.8854 18.9765 21.9889 20.232C21.0923 21.4876 19.9081 22.3871 18.4363 22.9307Z" fill="#2952FF"/>
</svg>
