<svg width="10" height="13" viewBox="0 0 10 13" fill="none" xmlns="http://www.w3.org/2000/svg">
<path d="M9.02456 6.38086L3.77456 12.0059C3.71892 12.0652 3.64548 12.1049 3.56533 12.1189C3.48517 12.1328 3.40264 12.1204 3.33019 12.0833C3.25775 12.0463 3.19932 11.9867 3.16372 11.9135C3.12811 11.8404 3.11728 11.7576 3.13284 11.6777L3.82002 8.24039L1.11862 7.22601C1.0606 7.20431 1.00887 7.16858 0.96803 7.122C0.927194 7.07542 0.898532 7.01946 0.884603 6.9591C0.870675 6.89875 0.871915 6.83588 0.888211 6.77612C0.904508 6.71636 0.935354 6.66157 0.977994 6.61664L6.22799 0.991637C6.28363 0.932263 6.35707 0.892596 6.43722 0.87862C6.51738 0.864645 6.59991 0.87712 6.67236 0.914163C6.7448 0.951206 6.80323 1.01081 6.83883 1.08397C6.87444 1.15714 6.88527 1.2399 6.86971 1.31976L6.18065 4.76086L8.88206 5.77382C8.93964 5.79567 8.99097 5.83137 9.03148 5.87776C9.072 5.92415 9.10047 5.97981 9.11437 6.03981C9.12827 6.09982 9.12718 6.16232 9.11119 6.2218C9.09519 6.28128 9.0648 6.33591 9.02268 6.38086H9.02456Z" fill="#85D446"/>
</svg>
