<svg width="20" height="24" viewBox="0 0 20 24" fill="none" xmlns="http://www.w3.org/2000/svg">
<g clip-path="url(#clip0_220_925)">
<path d="M10.6345 0.00537109C10.8459 0.167071 11.0294 0.366086 11.2315 0.540225C13.0568 2.26295 14.7298 4.16604 16.0763 6.2899C17.3792 8.34536 18.3805 10.6185 18.8252 13.0191C19.0708 14.3345 19.1517 15.684 19.0086 17.015C18.9433 17.5716 18.8469 18.1282 18.6697 18.66C18.4209 19.4311 18.0944 20.1806 17.6466 20.8584C17.261 21.4431 16.7791 21.9655 16.2224 22.3884C15.6098 22.8517 14.9102 23.1907 14.1825 23.4239C13.2776 23.7131 12.3292 23.8561 11.3839 23.9339C10.255 24.0178 9.12004 24.0333 7.99439 23.8903C6.71945 23.7317 5.45383 23.3928 4.31882 22.7802C3.26777 22.2142 2.34422 21.384 1.75028 20.3391C1.06306 19.1451 0.836055 17.7302 0.944892 16.3651C1.05684 14.9191 1.51706 13.5166 2.12655 12.2075C2.65518 11.0818 3.30198 10.0152 4.02027 9.00149C4.63286 8.14324 5.2921 7.31919 6.01356 6.548C6.02597 6.53867 6.05088 6.51691 6.06643 6.50758C6.05399 7.15749 6.11618 7.81051 6.30276 8.43554C6.49245 9.07301 6.81274 9.67317 7.23875 10.1863C7.26366 10.2173 7.28229 10.2609 7.32893 10.2671C8.25249 9.57369 9.12629 8.79628 9.80729 7.86029C10.5132 6.89317 10.9858 5.76127 11.1662 4.57651C11.4056 3.04347 11.2004 1.44823 10.6345 0.00537109Z" fill="#2952FF" stroke="#2952FF" stroke-width="0.304483"/>
</g>
<defs>
<clipPath id="clip0_220_925">
<rect width="18.1632" height="24" fill="white" transform="translate(0.917969)"/>
</clipPath>
</defs>
</svg>
