<svg width="28" height="28" viewBox="0 0 28 28" fill="none" xmlns="http://www.w3.org/2000/svg">
<g clip-path="url(#clip0_220_886)">
<path d="M14 0.4375C6.51328 0.4375 0.4375 6.51328 0.4375 14C0.4375 21.4867 6.51328 27.5625 14 27.5625C21.4867 27.5625 27.5625 21.4867 27.5625 14C27.5625 6.51328 21.4867 0.4375 14 0.4375Z" fill="#74DBF7"/>
<path d="M22.6738 12.6383C22.3895 12.6383 22.2145 12.5672 21.9684 12.425C18.0746 10.1008 11.1129 9.54294 6.60664 10.8008C6.40977 10.8554 6.16367 10.9429 5.90117 10.9429C5.1793 10.9429 4.62695 10.3797 4.62695 9.65232C4.62695 8.90857 5.08633 8.48748 5.57852 8.34529C7.50352 7.78201 9.6582 7.51404 12.0043 7.51404C15.9965 7.51404 20.1801 8.34529 23.2371 10.1281C23.6637 10.3742 23.9426 10.7133 23.9426 11.364C23.9426 12.1078 23.341 12.6383 22.6738 12.6383ZM20.9785 16.8054C20.6941 16.8054 20.5027 16.6797 20.3059 16.5758C16.8879 14.5523 11.791 13.7375 7.25742 14.9679C6.99492 15.039 6.85273 15.1101 6.60664 15.1101C6.02148 15.1101 5.5457 14.6344 5.5457 14.0492C5.5457 13.464 5.83008 13.0758 6.39336 12.9172C7.91367 12.4906 9.4668 12.1734 11.7418 12.1734C15.291 12.1734 18.7199 13.0539 21.4215 14.6617C21.8645 14.9242 22.0395 15.2633 22.0395 15.739C22.034 16.3297 21.5746 16.8054 20.9785 16.8054ZM19.5074 20.3929C19.2777 20.3929 19.1355 20.3218 18.9223 20.1961C15.5098 18.1398 11.5395 18.0523 7.61836 18.8562C7.40508 18.9109 7.12617 18.9984 6.96758 18.9984C6.43711 18.9984 6.10352 18.5773 6.10352 18.1344C6.10352 17.5711 6.43711 17.3031 6.84727 17.2156C11.3262 16.2258 15.9035 16.3133 19.8082 18.6484C20.1418 18.8617 20.3387 19.0531 20.3387 19.5508C20.3387 20.0484 19.9504 20.3929 19.5074 20.3929Z" fill="white"/>
</g>
<defs>
<clipPath id="clip0_220_886">
<rect width="27.125" height="28" fill="white" transform="translate(0.4375)"/>
</clipPath>
</defs>
</svg>
